<?xml version="1.0" standalone="no"?>
<!DOCTYPE svg PUBLIC "-//W3C//DTD SVG 1.1//EN" "http://www.w3.org/Graphics/SVG/1.1/DTD/svg11.dtd">
<svg width="80px" height="80px" viewBox="0 0 80s 80"  version="1.1" xmlns="http://www.w3.org/2000/svg" xmlns:xlink="http://www.w3.org/1999/xlink">
	<style type="text/css">
		#tri01, #tri02, #tri03, #tri04, #tri05, #tri06, #tri07, #tri08, #tri09, #tri10, #tri11, #tri12, #tri13, #tri14, #tri15, #tri16{opacity:0.0;}
		#loader #tri01{animation: twinkle 1.6s linear 0.1s infinite;}
		#loader #tri02{animation: twinkle 1.6s linear 0.2s infinite;}
		#loader #tri03{animation: twinkle 1.6s linear 0.3s infinite;}
		#loader #tri04{animation: twinkle 1.6s linear 0.4s infinite;}
		#loader #tri05{animation: twinkle 1.6s linear 0.5s infinite;}
		#loader #tri06{animation: twinkle 1.6s linear 0.6s infinite;}
		#loader #tri07{animation: twinkle 1.6s linear 0.7s infinite;}
		#loader #tri08{animation: twinkle 1.6s linear 0.8s infinite;}
		#loader #tri09{animation: twinkle 1.6s linear 0.9s infinite;}
		#loader #tri10{animation: twinkle 1.6s linear 1.0s infinite;}
		#loader #tri11{animation: twinkle 1.6s linear 1.1s infinite;}
		#loader #tri12{animation: twinkle 1.6s linear 1.2s infinite;}
		#loader #tri13{animation: twinkle 1.6s linear 1.3s infinite;}
		#loader #tri14{animation: twinkle 1.6s linear 1.4s infinite;}
		#loader #tri15{animation: twinkle 1.6s linear 1.5s infinite;}
		#loader #tri16{animation: twinkle 1.6s linear 1.6s infinite;}
		
		@keyframes twinkle{
			0%{opacity:0.0;}
			40%{opacity:1.0;}
			50%{opacity:1.0;}
			80%{opacity:0.0;}
			100%{opacity:0.0;}
		}
	</style>
	
    <g id="loader" stroke="none" fill="#482F91">
		<polygon id="tri01" points="71.0080112 33 66 24 76 24.0010382"></polygon>
		<polygon id="tri02" transform="translate(75.500000, 40.000000) rotate(270.000000) translate(-75.500000, -40.000000) " points="75.5080112 44.5 70.5 35.5 80.5 35.5010382"></polygon>
		<polygon id="tri03" transform="translate(71.000000, 51.500000) rotate(180.000000) translate(-71.000000, -51.500000) " points="71.0080112 56 66 47 76 47.0010382"></polygon>
		<polygon id="tri04" transform="translate(63.994315, 61.140761) rotate(195.000000) translate(-63.994315, -61.140761) " points="64.0023261 65.6407614 58.9943148 56.6407614 68.9943148 56.6417996"></polygon>
		<polygon id="tri05" transform="translate(52.500000, 70.000000) rotate(90.000000) translate(-52.500000, -70.000000) " points="52.5080112 74.5 47.5 65.5 57.5 65.5010382"></polygon>
		<polygon id="tri06" points="41.0080112 79 36 70 46 70.0010382"></polygon>
		<polygon id="tri07" transform="translate(29.500000, 70.000000) rotate(270.000000) translate(-29.500000, -70.000000) " points="29.5080112 74.5 24.5 65.5 34.5 65.5010382"></polygon>
		<polygon id="tri08" transform="translate(19.140761, 62.994315) rotate(285.000000) translate(-19.140761, -62.994315) " points="19.1487727 67.4943148 14.1407614 58.4943148 24.1407614 58.495353"></polygon>
		<polygon id="tri09" transform="translate(10.000000, 51.500000) rotate(180.000000) translate(-10.000000, -51.500000) " points="10.0080112 56 5 47 15 47.0010382"></polygon>
		<polygon id="tri10" transform="translate(5.500000, 40.000000) rotate(90.000000) translate(-5.500000, -40.000000) " points="5.50801122 44.5 0.5 35.5 10.5 35.5010382"></polygon>
		<polygon id="tri11" points="10.0080112 33 5 24 15 24.0010382"></polygon>
		<polygon id="tri12" transform="translate(16.994315, 19.140761) rotate(15.000000) translate(-16.994315, -19.140761) " points="17.0023261 23.6407614 11.9943148 14.6407614 21.9943148 14.6417996"></polygon>
		<polygon id="tri13" transform="translate(29.500000, 10.000000) rotate(270.000000) translate(-29.500000, -10.000000) " points="29.5080112 14.5 24.5 5.5 34.5 5.50103818"></polygon>
		<polygon id="tri14" transform="translate(41.000000, 5.500000) rotate(180.000000) translate(-41.000000, -5.500000) " points="41.0080112 10 36 1 46 1.00103818"></polygon>
		<polygon id="tri15" transform="translate(52.500000, 10.000000) rotate(90.000000) translate(-52.500000, -10.000000) " points="52.5080112 14.5 47.5 5.5 57.5 5.50103818"></polygon>
		<polygon id="tri16" transform="translate(62.140761, 16.994315) rotate(105.000000) translate(-62.140761, -16.994315) " points="62.1487727 21.4943148 57.1407614 12.4943148 67.1407614 12.495353"></polygon>
    </g>
</svg>